<svg width="217.000000" height="78.000000" viewBox="0 0 217 78" fill="none" xmlns="http://www.w3.org/2000/svg" xmlns:xlink="http://www.w3.org/1999/xlink">
	<desc>
			Created with Pixso.
	</desc>
	<defs/>
	<path id="The Wild Kingdom" d="M22.01 0L0.37 0L0 4.07L0.04 4.07C3.39 2.48 5.56 0.74 8.05 0.74L9.04 0.74L9.04 30.17L13.33 30.17L13.33 0.74L14.28 0.74C16.77 0.74 19.04 2.52 22.38 4.12L22.48 4.12L22.01 0ZM48.62 0L48.62 14.1L33.77 14.1L33.77 0L29.53 0L29.53 30.17L33.77 30.17L33.77 14.85L48.62 14.85L48.62 30.17L52.86 30.17L52.86 0L48.62 0ZM68.97 29.42L66.56 29.42L66.56 14.85L74.48 14.85L74.48 14.1L66.56 14.1L66.56 0.74L68.97 0.74C72.55 0.74 76.79 1.03 78.39 5.29L79.29 5.29L79.24 0L62.32 0L62.32 30.17L79.24 30.17L79.29 24.87L78.39 24.87C76.79 29.14 72.55 29.42 68.97 29.42ZM139.63 0C138.36 3.93 137.32 6.93 135.16 12.97L131.48 23.56L123.37 0L123.18 0L114.89 23.56L106.78 0L102.26 0L113 30.82L113.14 30.82L121.49 7.21L129.69 30.82L129.83 30.82L135.96 13.25C137.79 8.1 139.11 4.31 140.91 0L139.63 0ZM152.23 30.17L152.23 0L147.99 0L147.99 30.17L152.23 30.17ZM177.8 24.87C176.19 29.14 171.95 29.42 168.37 29.42L165.97 29.42L165.97 0L161.72 0L161.72 30.17L178.65 30.17L178.69 24.87L177.8 24.87ZM196.56 0L185.95 0L185.95 30.17L195.85 30.17C206.17 30.17 212.63 24.5 212.63 14.75C212.63 5.2 206.17 0 196.56 0ZM196.56 29.51C193.21 29.51 191.28 29.37 190.2 29.14L190.2 0.7L196.18 0.7C203.35 0.7 207.97 6.41 207.97 14.99C207.97 24.26 203.82 29.51 196.56 29.51ZM92.52 63.34L92.99 64.09L99.97 64.09L99.97 74.3C98.13 75.75 95.3 76.79 92.24 76.79C85.17 76.79 80.5 70.65 80.5 61.89C80.5 52.89 84.75 47.03 91.39 47.03C93.56 47.03 94.83 48.35 95.77 50.08C97.28 52.8 100.91 53.41 103.13 51.25L103.22 51.2C100.72 48.44 96.67 46.38 91.77 46.38C82.67 46.38 75.84 52.56 75.84 62.17C75.84 71.87 82.29 77.54 92.05 77.54C97.42 77.54 101.2 75.71 103.88 73.74L103.88 63.34L92.52 63.34ZM162.05 46.38C153 46.38 146.02 52.56 146.02 62.26C146.02 71.77 152.86 77.54 161.53 77.54C170.53 77.54 177.56 71.35 177.56 61.65C177.56 52.14 170.72 46.38 162.05 46.38ZM7.19 77.02L7.19 46.85L2.95 46.85L2.95 77.02L7.19 77.02ZM25.76 46.94L25.76 46.85L24.16 46.85C21.85 49.05 18.97 51.72 14.49 55.94L8.51 61.56L18.92 77.02L24.53 77.02L12 59.4L15.01 56.55C18.88 52.89 22.22 49.8 25.76 46.94ZM36.99 77.02L36.99 46.85L32.75 46.85L32.75 77.02L36.99 77.02ZM66.75 46.85L66.75 70.23L50.11 46.85L45.07 46.85L45.07 46.99L47.09 49.8L47.09 76.97L47.94 76.97L47.94 50.97L67.22 77.54L67.6 77.54L67.6 46.85L66.75 46.85ZM122.94 46.85L112.34 46.85L112.34 77.02L122.24 77.02C132.56 77.02 139.02 71.35 139.02 61.61C139.02 52.05 132.56 46.85 122.94 46.85ZM213.7 46.85L209.88 46.85L201.07 69.05L191.03 46.85L186.45 46.85L186.45 46.99L187.35 48.96L184.71 76.97L185.51 76.97L188.01 50.5L199.32 75.15L199.51 75.15L209.69 49.47L212.28 77.02L216.57 77.02L213.7 46.85ZM161.95 76.88C155.31 76.88 150.69 70.83 150.69 61.79C150.69 52.89 155.03 47.03 161.72 47.03C168.27 47.03 172.89 53.08 172.89 62.12C172.89 71.02 168.55 76.88 161.95 76.88ZM122.94 76.36C119.6 76.36 117.67 76.22 116.58 75.99L116.58 47.55L122.57 47.55C129.73 47.55 134.35 53.27 134.35 61.84C134.35 71.12 130.2 76.36 122.94 76.36Z" fill="#C1AB81" fill-opacity="1.000000" fill-rule="evenodd"/>
</svg>
